<mxfile host="app.diagrams.net" modified="2023-03-30T19:30:21.120Z" agent="Mozilla/5.0 (Windows NT 10.0; Win64; x64) AppleWebKit/537.36 (KHTML, like Gecko) Chrome/111.0.0.0 Safari/537.36" version="21.1.1" etag="G_Zk3JoMNg5i8gspnrNp" type="github">
  <diagram name="Страница 1" id="2BORUkvgJzm7FoyyePQ7">
    <mxGraphModel>
      <root>
        <mxCell id="0" />
        <mxCell id="1" parent="0" />
      </root>
    </mxGraphModel>
  </diagram>
</mxfile>
